<svg width="256" height="256" viewBox="0 0 256 256" fill="none" xmlns="http://www.w3.org/2000/svg">
  <defs>
    <linearGradient id="bg" x1="28" y1="20" x2="228" y2="236" gradientUnits="userSpaceOnUse">
      <stop stop-color="#FFFDF9"/>
      <stop offset="1" stop-color="#F2EEE7"/>
    </linearGradient>
    <linearGradient id="fFill" x1="86" y1="42" x2="164" y2="206" gradientUnits="userSpaceOnUse">
      <stop stop-color="#434343"/>
      <stop offset="0.45" stop-color="#232323"/>
      <stop offset="1" stop-color="#111111"/>
    </linearGradient>
    <linearGradient id="fEdge" x1="74" y1="38" x2="170" y2="214" gradientUnits="userSpaceOnUse">
      <stop stop-color="#5A5A5A" stop-opacity="0.55"/>
      <stop offset="1" stop-color="#000000" stop-opacity="0"/>
    </linearGradient>
    <filter id="plateShadow" x="0" y="0" width="256" height="256" filterUnits="userSpaceOnUse" color-interpolation-filters="sRGB">
      <feFlood flood-opacity="0" result="BackgroundImageFix"/>
      <feColorMatrix in="SourceAlpha" type="matrix" values="0 0 0 0 0 0 0 0 0 0 0 0 0 0 0 0 0 0 127 0" result="hardAlpha"/>
      <feOffset dy="4"/>
      <feGaussianBlur stdDeviation="6"/>
      <feComposite in2="hardAlpha" operator="out"/>
      <feColorMatrix type="matrix" values="0 0 0 0 0 0 0 0 0 0 0 0 0 0 0 0 0 0 0.10 0"/>
      <feBlend mode="normal" in2="BackgroundImageFix" result="effect1_dropShadow_1_1"/>
      <feBlend mode="normal" in="SourceGraphic" in2="effect1_dropShadow_1_1" result="shape"/>
    </filter>
    <filter id="fShadow" x="40" y="26" width="158" height="208" filterUnits="userSpaceOnUse" color-interpolation-filters="sRGB">
      <feFlood flood-opacity="0" result="BackgroundImageFix"/>
      <feColorMatrix in="SourceAlpha" type="matrix" values="0 0 0 0 0 0 0 0 0 0 0 0 0 0 0 0 0 0 127 0" result="hardAlpha"/>
      <feOffset dy="8"/>
      <feGaussianBlur stdDeviation="8"/>
      <feComposite in2="hardAlpha" operator="out"/>
      <feColorMatrix type="matrix" values="0 0 0 0 0 0 0 0 0 0 0 0 0 0 0 0 0 0 0.16 0"/>
      <feBlend mode="normal" in2="BackgroundImageFix" result="effect1_dropShadow_1_1"/>
      <feBlend mode="normal" in="SourceGraphic" in2="effect1_dropShadow_1_1" result="shape"/>
    </filter>
  </defs>

  <g filter="url(#plateShadow)">
    <rect x="10" y="10" width="236" height="236" rx="58" fill="url(#bg)"/>
    <rect x="10.75" y="10.75" width="234.5" height="234.5" rx="57.25" stroke="#D7D1C8" stroke-width="1.5"/>
    <rect x="18" y="18" width="220" height="220" rx="50" stroke="#FFFFFF" stroke-opacity="0.92" stroke-width="1.2"/>
  </g>

  <g filter="url(#fShadow)">
    <g transform="translate(15.5 0)">
      <path d="M59 60C59 47.2975 69.2975 37 82 37H177L155.7 58.3C150.116 63.8839 142.543 67.0212 134.649 67.0212H103.2C95.8546 67.0212 89.9 72.9758 89.9 80.3212C89.9 87.6666 95.8546 93.6212 103.2 93.6212H132.1C144.416 93.6212 154.4 103.605 154.4 115.921C154.4 128.236 144.416 138.22 132.1 138.22H93.6V189.4C93.6 198.566 86.1663 206 77 206H59V60Z" fill="url(#fFill)"/>
      <path d="M59 60C59 47.2975 69.2975 37 82 37H177L155.7 58.3C150.116 63.8839 142.543 67.0212 134.649 67.0212H103.2C95.8546 67.0212 89.9 72.9758 89.9 80.3212C89.9 87.6666 95.8546 93.6212 103.2 93.6212H132.1C144.416 93.6212 154.4 103.605 154.4 115.921C154.4 128.236 144.416 138.22 132.1 138.22H93.6V189.4C93.6 198.566 86.1663 206 77 206H59V60Z" fill="url(#fEdge)"/>
    </g>
  </g>
</svg>
